<svg data-name="Layer 1" xmlns="http://www.w3.org/2000/svg" width="1121" height="867.01"><path d="M555 698.63a307 307 0 1 1 217.08-89.92A305 305 0 0 1 555 698.63zm0-612c-168.18 0-305 136.82-305 305s136.82 305 305 305 305-136.83 305-305-136.82-305-305-305z" fill="#3f3d56"/><path d="M580.86 664.73c-5.69 21.01-25.16 34.03-25.16 34.03s-10.25-21.06-4.57-42.08 25.16-34.03 25.16-34.03 10.25 21.06 4.57 42.08z" fill="#6c63ff"/><path d="M529.14 664.73c5.69 21.01 25.16 34.03 25.16 34.03s10.25-21.06 4.57-42.08-25.16-34.03-25.16-34.03-10.25 21.06-4.57 42.08z" fill="#6c63ff"/><path d="M537.5 660.21c15.6 15.19 17.5 38.53 17.5 38.53s-23.39-1.28-38.99-16.46-17.5-38.53-17.5-38.53 23.38 1.27 38.98 16.46zm35 0c-15.6 15.19-17.5 38.53-17.5 38.53s23.39-1.28 38.99-16.46 17.5-38.53 17.5-38.53-23.38 1.27-38.98 16.46z" fill="#3f3d56"/><path d="M529.14 119.68c5.69-21.01 25.16-34.03 25.16-34.03s10.25 21.06 4.57 42.08-25.16 34.03-25.16 34.03-10.25-21.06-4.57-42.08z" fill="#6c63ff"/><path d="M580.86 119.68c-5.69-21.01-25.16-34.03-25.16-34.03s-10.25 21.06-4.57 42.08 25.16 34.03 25.16 34.03 10.25-21.06 4.57-42.08z" fill="#6c63ff"/><path d="M572.5 124.2C556.9 109.02 555 85.67 555 85.67s23.39 1.28 38.99 16.46 17.5 38.53 17.5 38.53-23.38-1.27-38.98-16.46zm-35 0c15.6-15.18 17.5-38.53 17.5-38.53s-23.39 1.28-38.99 16.46-17.5 38.53-17.5 38.53 23.38-1.27 38.98-16.46z" fill="#3f3d56"/><path fill="#6c63ff" d="M14.63 12.68h397.46v404.17H14.63z"/><path fill="#3f3d56" d="M397.06 22.93H22.94v378.44H43V44.44h354.06v-21.5z"/><path opacity=".3" d="M397.06 22.93H22.94v378.44H43V44.44h354.06v-21.5z"/><path opacity=".1" d="M339.73 44.44H43v51.6h280.96v305.32h73.1V44.44h-57.33z"/><path d="M0 0v424.3h420V0zm397.06 401.37H22.94V22.94h374.12z" fill="#3f3d56"/><path d="M294.75 439.94s19 36.8 29.67 45.1-17.2 18.4-17.2 18.4l-32.65-51.03z" fill="#a0616a"/><path d="M179.61 350.33s88.43 23.14 96.15 38.57 31.45 52.82 31.45 52.82l-35.01 27.9-34.43-51.64-94.95-42.73zm124.64 138.28s-8.31-7.12-10.69-2.37-9.5 29.08-9.5 29.08 10.1 9.5 30.87 3.56c0 0 5.34-4.16 13.65 0s39.17-4.16 37.98-17.8-32.64-12.47-32.64-12.47-13.25-14.84-14.93-9.2.69 6.23.69 6.23-10.69 11.28-15.43 2.97z" fill="#2f2e41"/><path d="M202.76 476.15L196.82 526h29.08s-2.37-38.58-1.78-43.33-21.36-6.52-21.36-6.52zm16.62-109.8s16.02 23.74 6.52 25.52-17.2-25.52-17.2-25.52z" fill="#a0616a"/><path d="M98.3 363.98s-11.87 35.01 35.02 44.5 61.13 17.22 61.13 17.22l5.93 60.54 40.96 2.37s19.58-92-5.94-103.86-79.53-25.52-79.53-25.52zm102.08 154.3s8.31-4.15 9.5-4.15c0 0 5.22-12.03 14.78-10.76l20.83 30.35s31.46 22.55 9.5 28.48-39.17 1.19-39.17 1.19l-8.9-6.53s1.18-6.53-6.54-5.34c0 0-16.02-6.53-15.43-11.28s13.2-25.41 13.2-25.41z" fill="#2f2e41"/><circle cx="205.43" cy="224.8" r="23.74" fill="#a0616a"/><path d="M186.14 217.38s-21.37 15.43-25.52 16.03 19.59 29.67 19.59 29.67 11.27-18.4 18.4-20.77-12.47-24.93-12.47-24.93z" fill="#a0616a"/><path d="M170.12 236.97s-8.9-11.87-14.25-11.87-53.41 5.34-57.57 45.1-1.78 109.2-1.78 109.2-3.56-17.2 36.2-10.08c0 0 47.49-10.1 55.8-10.1s11.86-84.86 11.86-84.86l-13.5-20.95s-6.08 11.45-16.76-16.44z" fill="#d0cde1"/><path d="M191.48 269.61l8.9 4.75 10.69 65.28 14.83 33.83s-16.02-5.51-17.2 1.1l-23.75-34.33z" fill="#d0cde1"/><path d="M200.1 205.33l12.9 1.62c-.24 2.62-.17 5.88 2.16 7.12 1.1.59 2.48.56 3.45 1.33 2.34 1.86.05 5.86 1.37 8.54l3.78 1a7.3 7.3 0 0 0 9.92 2.98c2.54-1.53 3.83-4.44 4.97-7.17 1.37-3.26 2.76-6.77 2.08-10.24-.74-3.73-3.78-6.83-3.92-10.63-.06-1.7.3-3.81-1.14-4.73a6.05 6.05 0 0 0-2.1-.55c-3.3-.7-5.13-4.1-7.59-6.41-5.16-4.83-13.07-4.7-20.13-4.28a17.88 17.88 0 0 0-5.92 1.03 17.26 17.26 0 0 0-5.58 4.45c-3.78 4.03-7.46 8.26-9.96 13.2s-3.72 10.69-2.36 16.05c-.14-.52 4.35-3.9 4.91-4.43 1.75-1.7 1.91-2.51 2.86-4.47 2.22-4.55 5.3-5.03 10.3-4.4z" fill="#2f2e41"/><path opacity=".1" d="M162.1 281.78l1.78 41.54 26.4 30.96-24.02-34.52-4.16-37.98zm-47.47 11.27l20.77 48.08 26.7 21.96-28.48-19.59-19-50.45z"/><path d="M227.46 332.02l12.55 8.63a3.47 3.47 0 0 1 .96 4.27l-1.68 3.46.39.27-1.91 3.93-.39-.26-13.82 28.53a2.68 2.68 0 0 1-3.99 1.27l-11.8-8.12a3.98 3.98 0 0 1-1.1-4.9l17.46-36.02a2.24 2.24 0 0 1 3.33-1.06z" fill="#3f3d56"/><path fill="#fff" d="M207.98 368.79l13.5 9.29 17.63-36.37-13.51-9.29-17.62 36.37z"/><path d="M202.11 360.78s23.54 16.32 15.34 21.42-25.3-17.54-25.3-17.54z" fill="#a0616a"/><path d="M132.13 239.94s-30.86 8.9-21.96 36.2a395.58 395.58 0 0 0 7.45 20.59 807.62 807.62 0 0 0 18.07 42.32l26.83 24.25 36.08 10.17 4.16-3.56s1.19-11.28-4.16-12.46-13.65-5.94-13.65-5.94l-21.36-31.45s-.6-78.34-31.46-80.12z" fill="#d0cde1"/><path fill="#6c63ff" d="M1106.72 707.41h-388V312.87h388z"/><path fill="#3f3d56" d="M733.39 322.88h365.23V692.3h-19.6V343.87H733.39v-20.99z"/><path opacity=".3" d="M733.39 322.88h365.23V692.3h-19.6V343.87H733.39v-20.99z"/><path opacity=".1" d="M789.36 343.87h289.66v50.38H804.75V692.3H733.4V343.87h55.97z"/><path d="M711 300.5v414.19h410v-414.2zm22.39 22.38h365.22V692.3H733.4z" fill="#3f3d56"/><path d="M950.57 495.77c-8.82-14.92-26.3-15.61-26.3-15.61s-17.01-2.18-27.93 20.54c-10.18 21.18-24.22 41.62-2.26 46.58l3.97-12.35 2.45 13.27a85.93 85.93 0 0 0 9.4.16c23.52-.76 45.92.22 45.2-8.22-.96-11.22 3.97-30.02-4.53-44.37z" fill="#2f2e41"/><path fill="#a0616a" d="M886.94 616.17l-1.86 33.43 54.49 5.58 1.85-34.68-18.57-11.76-35.91 7.43z"/><path d="M1033.36 689.54c-1.63-15.8-66.5-22.97-82.08-24.46l-5.83-3.4-1.86-19.82s-57.58-4.95-61.91-5.57-8.05 7.43-8.05 9.29c0 1.34-.81 10.93-4.07 16.61-7.02 5.64-28.44 23.4-28.44 30.13 0 8.05 17.03 109.28 17.03 109.28l1.86 21.05 17.33 3.1-1.24-65.63s6.2-37.77-2.47-48.3v-4.33s25.42-6.62 34.38-13.83c2.6-.56 9.9-1.93 13.92-.74.56.33 1.2.66 1.9 1a2.9 2.9 0 0 1 .26.26l.07-.1c11.59 5.42 41.32 12.26 53.48 10.32a42.56 42.56 0 0 1 27.24 4.95c-6.8 8.67-1.85 33.43-1.85 33.43l.62 53.25 8.66 10.52h11.77v-29.1s11.14-69.96 9.28-87.91z" fill="#2f2e41"/><circle cx="918.82" cy="516.18" r="20.43" fill="#a0616a"/><path d="M906.44 529.18s3.1 13.62-1.24 14.86a58.6 58.6 0 0 0-9.9 4.33l-4.96 16.1v16.1l60.06 6.81 1.86-5.57v-8.05l-6.81-12.38-3.1-3.1s-13.62-14.86-10.52-29.1z" fill="#a0616a"/><path d="M960 578.4s1.85 21.67 0 31.58-1.24 24.76-1.24 24.76l-13.62-2.47v-33.44l3.1-17.95z" fill="#a0616a"/><circle cx="926.42" cy="480.23" r="12.63" fill="#2f2e41"/><path d="M912.46 476.9a12.63 12.63 0 0 1 11.3-12.55 12.76 12.76 0 0 0-1.33-.07 12.63 12.63 0 0 0 0 25.26 12.76 12.76 0 0 0 1.33-.07 12.63 12.63 0 0 1-11.3-12.56z" fill="#2f2e41"/><path fill="#2f2e41" d="M946.67 494.33l-17.25-9.04-23.84 3.7-4.93 21.78 12.28-.48 3.43-8v7.87l5.66-.22 3.29-12.73 2.05 13.56 20.13-.41-.82-16.03z"/><path d="M876.38 801.86s8.78 4.14 11.37 5.69 12.92-1.55 10.85 7.75-10.85 18.09-10.85 18.09-4.14 4.65-4.14 7.75-10.33 26.87-22.74 25.84-10.33-13.44-10.33-13.44l2.58-13.44s5.17-22.74 6.2-22.22 3.62 4.14 3.62 4.14 12.92-5.17 13.44-20.16zm128.85-15.48s-8.79 4.14-11.37 5.69-12.92-1.55-10.85 7.75 10.85 18.09 10.85 18.09 4.13 4.65 4.13 7.75 10.34 26.87 22.74 25.84 10.34-13.44 10.34-13.44l-2.59-13.43s-5.16-22.74-6.2-22.23-3.61 4.14-3.61 4.14-12.92-5.17-13.44-20.16zm-68.12-147.31v-4.9h-1.1v-2.2a3.82 3.82 0 0 0-3.81-3.81h-13.1a3.82 3.82 0 0 0-3.83 3.82v36.58a3.82 3.82 0 0 0 3.82 3.82h13.1a3.82 3.82 0 0 0 3.83-3.82v-22.93h1.09v-4.92h-1.1v-1.64z" fill="#d0cde1"/><circle cx="926.19" cy="639.07" r="2.18" fill="#3f3d56"/><path d="M871.46 567.88l-11.14 45.81s-4.34 9.91 5.57 16.1 32.2 14.24 32.2 14.24 19.8 27.24 22.28 16.1-14.86-25.39-14.86-25.39l-30.34-19.19 11.77-32.2zm80.49 57.58s9.28-1.24 8.67 9.28-13 11.77-13 11.77-5.58 23.53-13.63 19.2 4.34-27.87 4.34-27.87l10.52-8.05z" fill="#a0616a"/><path d="M892.2 563.85l9.9-20.43-19.8 6.81s-11.15 5.57-11.77 18.58 14.24 19.8 14.24 19.8 2.48 18.58 1.24 21.06 0 12.38 0 12.38 23.84-6.5 35.6 1.55 21.36 3.4 21.36 3.4-.62-15.47 4.33-17.95 9.3-14.24 4.96-21.67c0 0 9.9 1.24 9.28-8.05s-5.57-17.33-13.62-21.05-8.93-4.3-8.93-4.3L950.4 575v5.57s-20.2-12.9-40.2-13.97a26.63 26.63 0 0 0-18 5.92z" fill="#2f2e41"/></svg>